# xmcd CD database file
#
# Track frame offsets:
#	150
#	39644
#	66831
#	119025
#	153433
#	215708
#	295536
#
# Disc length: 4310 seconds
#
# Revision: 0
# Processed by: cddbd v1.5.2PL0 Copyright (c) Steve Scherf et al.
# Submitted via: CDex 1.70beta3
#
DISCID=6a10d407
DTITLE=THE VANGUARD JAZZ ORCHESTRA - FOREVER LASTING-LIVE IN TOKYO DISC 
DYEAR=2011
DGENRE=Jazz
TTITLE0=01-All of Me
TTITLE1=02-Don't Ever Leave Me
TTITLE2=03-Nasty Dance
TTITLE3=04-Hardly Ever 
TTITLE4=05-Little Rascal on a Rock
TTITLE5=06-Fingers
TTITLE6=07-Forever Lasting
EXTD=YEAR: 2011
EXTT0=
EXTT1=
EXTT2=
EXTT3=
EXTT4=
EXTT5=
EXTT6=
PLAYORDER=
